<svg width="200" height="79" viewBox="0 0 200 79" fill="none" xmlns="http://www.w3.org/2000/svg">
    <g clip-path="url(#clip0_6_218)">
        <path d="M2.65714 12.4454C2.25714 12.4454 1.87619 12.3119 1.51429 12.0449C1.17143 11.7779 1 11.3964 1 10.9005V2.48909C1 2.0504 1.14286 1.69754 1.42857 1.43051C1.73333 1.14441 2.08571 1.00136 2.48571 1.00136H5.05714C6.2 1.00136 7.2 1.23978 8.05714 1.71661C8.93333 2.17438 9.60952 2.83241 10.0857 3.69072C10.581 4.54902 10.8286 5.57899 10.8286 6.78062C10.8286 7.82966 10.6 8.78333 10.1429 9.64164C9.70476 10.4999 9.08572 11.1866 8.28572 11.7016C7.50476 12.1975 6.6 12.4454 5.57143 12.4454H2.65714ZM3.82857 10.6716H5.08571C6.32381 10.6716 7.26667 10.3474 7.91429 9.69886C8.56191 9.03129 8.87619 8.05854 8.85714 6.78062C8.8381 5.48362 8.50476 4.4918 7.85714 3.80516C7.20952 3.11851 6.27619 2.77519 5.05714 2.77519H3.85714C3.28571 2.77519 3 3.06129 3 3.6335V9.8133C3 10.3855 3.27619 10.6716 3.82857 10.6716Z" fill="#3949AB"/>
        <path d="M13.6875 12.7315C13.4399 12.7315 13.2113 12.6552 13.0018 12.5027C12.8113 12.3501 12.7161 12.1307 12.7161 11.8446V4.97818C12.7161 4.65393 12.8113 4.41551 13.0018 4.26292C13.2113 4.09126 13.4399 4.00543 13.6875 4.00543C13.9351 4.00543 14.1542 4.09126 14.3446 4.26292C14.5542 4.41551 14.6589 4.65393 14.6589 4.97818V11.8446C14.6589 12.1307 14.5542 12.3501 14.3446 12.5027C14.1542 12.6552 13.9351 12.7315 13.6875 12.7315ZM13.7161 2.43187C13.3542 2.43187 13.0399 2.31743 12.7732 2.08855C12.5256 1.84059 12.4018 1.54495 12.4018 1.20163C12.4018 0.87738 12.5256 0.600815 12.7732 0.371933C13.0399 0.123978 13.3542 0 13.7161 0C14.0589 0 14.3542 0.123978 14.6018 0.371933C14.8494 0.600815 14.9732 0.87738 14.9732 1.20163C14.9732 1.54495 14.8494 1.84059 14.6018 2.08855C14.3542 2.31743 14.0589 2.43187 13.7161 2.43187Z" fill="#3949AB"/>
        <path d="M20.4987 16.4509C20.0987 16.4509 19.651 16.4127 19.1558 16.3364C18.6606 16.2601 18.1749 16.098 17.6987 15.8501C17.3368 15.6593 17.1558 15.3637 17.1558 14.9631C17.1558 14.7343 17.232 14.5244 17.3844 14.3337C17.5558 14.143 17.7653 14.0476 18.0129 14.0476C18.1844 14.0476 18.3558 14.0953 18.5272 14.1907C18.8891 14.3814 19.251 14.5149 19.6129 14.5912C19.9749 14.6675 20.3272 14.7056 20.6701 14.7056C21.3558 14.7056 21.9463 14.5244 22.4415 14.1621C22.9368 13.8187 23.1844 13.2656 23.1844 12.5027V11.7016C22.8606 12.0258 22.4796 12.2738 22.0415 12.4454C21.6225 12.6362 21.1463 12.7315 20.6129 12.7315C19.832 12.7315 19.1177 12.5408 18.4701 12.1593C17.8415 11.7779 17.3368 11.2533 16.9558 10.5858C16.5939 9.91821 16.4129 9.1648 16.4129 8.32557C16.4129 7.48634 16.5939 6.73294 16.9558 6.06536C17.3177 5.39779 17.8129 4.87327 18.4415 4.4918C19.0701 4.11033 19.7844 3.94821 20.5844 4.00543C21.1368 4.04358 21.6225 4.15802 22.0415 4.34875C22.4796 4.52041 22.8606 4.75883 23.1844 5.06401C23.1844 4.79698 23.2701 4.57763 23.4415 4.40597C23.632 4.23431 23.8701 4.14848 24.1558 4.14848C24.4415 4.14848 24.6701 4.23431 24.8415 4.40597C25.032 4.57763 25.1272 4.79698 25.1272 5.06401V12.5599C25.1272 13.4373 24.9177 14.1621 24.4987 14.7343C24.0987 15.3255 23.5463 15.7547 22.8415 16.0217C22.1368 16.3078 21.3558 16.4509 20.4987 16.4509ZM20.8415 10.9577C21.5653 10.9577 22.1368 10.7193 22.5558 10.2425C22.9749 9.74654 23.1844 9.09805 23.1844 8.29696C23.1844 7.53402 22.9749 6.92367 22.5558 6.46591C22.1368 6.00814 21.5653 5.77926 20.8415 5.77926C20.0987 5.77926 19.4987 6.00814 19.0415 6.46591C18.5844 6.92367 18.3558 7.54356 18.3558 8.32557C18.3558 9.08851 18.5749 9.71793 19.0129 10.2138C19.4701 10.7098 20.0796 10.9577 20.8415 10.9577Z" fill="#3949AB"/>
        <path d="M28.4196 12.7315C28.172 12.7315 27.9435 12.6552 27.7339 12.5027C27.5435 12.3501 27.4482 12.1307 27.4482 11.8446V4.97818C27.4482 4.65393 27.5435 4.41551 27.7339 4.26292C27.9435 4.09126 28.172 4.00543 28.4196 4.00543C28.6673 4.00543 28.8863 4.09126 29.0768 4.26292C29.2863 4.41551 29.3911 4.65393 29.3911 4.97818V11.8446C29.3911 12.1307 29.2863 12.3501 29.0768 12.5027C28.8863 12.6552 28.6673 12.7315 28.4196 12.7315ZM28.4482 2.43187C28.0863 2.43187 27.772 2.31743 27.5054 2.08855C27.2577 1.84059 27.1339 1.54495 27.1339 1.20163C27.1339 0.87738 27.2577 0.600815 27.5054 0.371933C27.772 0.123978 28.0863 0 28.4482 0C28.7911 0 29.0863 0.123978 29.3339 0.371933C29.5816 0.600815 29.7054 0.87738 29.7054 1.20163C29.7054 1.54495 29.5816 1.84059 29.3339 2.08855C29.0863 2.31743 28.7911 2.43187 28.4482 2.43187Z" fill="#3949AB"/>
        <path d="M34.9451 12.7315C34.2022 12.7315 33.5927 12.5027 33.1165 12.0449C32.6403 11.5871 32.4022 10.9005 32.4022 9.98496V6.35147C32.4022 6.16073 32.307 6.06536 32.1165 6.06536H31.6022C31.3546 6.06536 31.1451 5.98907 30.9737 5.83648C30.8022 5.66482 30.7165 5.45501 30.7165 5.20706C30.7165 4.94003 30.8022 4.72068 30.9737 4.54902C31.1451 4.37736 31.3546 4.29153 31.6022 4.29153H32.1165C32.307 4.29153 32.4022 4.19616 32.4022 4.00543V1.60217C32.4022 1.33514 32.4879 1.12534 32.6594 0.972747C32.8499 0.801086 33.0784 0.715255 33.3451 0.715255C33.6308 0.715255 33.8594 0.801086 34.0308 0.972747C34.2213 1.12534 34.3165 1.33514 34.3165 1.60217V4.00543C34.3165 4.19616 34.4118 4.29153 34.6022 4.29153H36.1451C36.3737 4.29153 36.5737 4.37736 36.7451 4.54902C36.9165 4.72068 37.0022 4.94003 37.0022 5.20706C37.0022 5.45501 36.9165 5.66482 36.7451 5.83648C36.5927 5.98907 36.3832 6.06536 36.1165 6.06536H34.6022C34.4118 6.06536 34.3165 6.16073 34.3165 6.35147V9.72747C34.3165 10.5286 34.6403 10.9291 35.2879 10.9291C35.4784 10.9291 35.6784 10.9005 35.8879 10.8433C36.0975 10.786 36.2403 10.7574 36.3165 10.7574C36.5832 10.7574 36.7832 10.8433 36.9165 11.0149C37.0689 11.1866 37.1451 11.3869 37.1451 11.6157C37.1451 11.7874 37.0975 11.9591 37.0022 12.1307C36.907 12.2833 36.7546 12.3978 36.5451 12.4741C36.3356 12.5503 36.0689 12.6076 35.7451 12.6457C35.4403 12.7029 35.1737 12.7315 34.9451 12.7315Z" fill="#3949AB"/>
        <path d="M42.2661 12.7315C41.447 12.7315 40.7137 12.5408 40.0661 12.1593C39.4185 11.7779 38.9137 11.2533 38.5518 10.5858C38.1899 9.89913 38.0089 9.13619 38.0089 8.29696C38.0089 7.4768 38.1899 6.74247 38.5518 6.09397C38.9137 5.44548 39.4185 4.94003 40.0661 4.57763C40.7137 4.19616 41.447 4.00543 42.2661 4.00543C42.7994 4.00543 43.2756 4.1008 43.6946 4.29153C44.1137 4.46319 44.4756 4.69207 44.7804 4.97818C44.8185 4.71115 44.9327 4.51088 45.1232 4.37736C45.3137 4.22477 45.5232 4.14848 45.7518 4.14848C45.9994 4.14848 46.2185 4.23431 46.4089 4.40597C46.6185 4.55856 46.7232 4.79698 46.7232 5.12123V11.8446C46.7232 12.1307 46.6185 12.3501 46.4089 12.5027C46.2185 12.6552 45.9994 12.7315 45.7518 12.7315C45.5042 12.7315 45.2756 12.6552 45.0661 12.5027C44.8756 12.3501 44.7804 12.1307 44.7804 11.8446V11.7302C44.4756 12.0354 44.1137 12.2738 43.6946 12.4454C43.2756 12.6362 42.7994 12.7315 42.2661 12.7315ZM42.4375 10.9577C43.1613 10.9577 43.7327 10.7193 44.1518 10.2425C44.5708 9.74654 44.7804 9.09805 44.7804 8.29696C44.7804 7.53402 44.5708 6.92367 44.1518 6.46591C43.7327 6.00814 43.1613 5.77926 42.4375 5.77926C41.6946 5.77926 41.0946 6.00814 40.6375 6.46591C40.1804 6.92367 39.9518 7.53402 39.9518 8.29696C39.9518 9.09805 40.1804 9.74654 40.6375 10.2425C41.0946 10.7193 41.6946 10.9577 42.4375 10.9577Z" fill="#3949AB"/>
        <path d="M49.8475 12.7315C49.5999 12.7315 49.3714 12.6552 49.1618 12.5027C48.9714 12.3501 48.8761 12.1307 48.8761 11.8446V0.972747C48.8761 0.648498 48.9714 0.41008 49.1618 0.257492C49.3714 0.0858307 49.5999 0 49.8475 0C50.0952 0 50.3142 0.0858307 50.5047 0.257492C50.7142 0.41008 50.819 0.648498 50.819 0.972747V11.8446C50.819 12.1307 50.7142 12.3501 50.5047 12.5027C50.3142 12.6552 50.0952 12.7315 49.8475 12.7315Z" fill="#3949AB"/>
        <path d="M4.42857 32.7587C4.12381 32.7587 3.87619 32.6729 3.68571 32.5012C3.51429 32.3295 3.42857 32.1102 3.42857 31.8432V23.5176C3.42857 23.0408 3.18095 22.8023 2.68571 22.8023H0.885714C0.295238 22.8023 0 22.5067 0 21.9154C0 21.3241 0.295238 21.0285 0.885714 21.0285H7.94286C8.20952 21.0285 8.42857 21.1143 8.6 21.286C8.77143 21.4386 8.85714 21.6484 8.85714 21.9154C8.85714 22.1824 8.77143 22.4018 8.6 22.5735C8.42857 22.726 8.20952 22.8023 7.94286 22.8023H6.17143C5.67619 22.8023 5.42857 23.0408 5.42857 23.5176V31.8432C5.42857 32.1102 5.33333 32.3295 5.14286 32.5012C4.97143 32.6729 4.73333 32.7587 4.42857 32.7587Z" fill="#3949AB"/>
        <path d="M11.9518 28.2383V31.8718C11.9518 32.1579 11.847 32.3772 11.6375 32.5298C11.447 32.6824 11.228 32.7587 10.9804 32.7587C10.7327 32.7587 10.5042 32.6824 10.2946 32.5298C10.1042 32.3772 10.0089 32.1579 10.0089 31.8718V25.1484C10.0089 24.8241 10.1042 24.5857 10.2946 24.4331C10.5042 24.2615 10.7327 24.1756 10.9804 24.1756C11.228 24.1756 11.447 24.2615 11.6375 24.4331C11.847 24.5857 11.9518 24.8241 11.9518 25.1484V25.2628C12.2185 24.9004 12.5613 24.6048 12.9804 24.3759C13.4185 24.147 13.8756 24.0326 14.3518 24.0326C14.5804 24.0326 14.8089 24.0612 15.0375 24.1184C15.2661 24.1756 15.4375 24.2901 15.5518 24.4617C15.6661 24.6334 15.7232 24.8241 15.7232 25.0339C15.7232 25.2819 15.6375 25.5108 15.4661 25.7206C15.3137 25.9113 15.0851 26.0067 14.7804 26.0067C14.647 26.0067 14.5042 25.9876 14.3518 25.9495C14.2185 25.9113 14.047 25.8922 13.8375 25.8922C13.2851 25.8922 12.828 26.102 12.4661 26.5217C12.1232 26.9413 11.9518 27.5135 11.9518 28.2383Z" fill="#3949AB"/>
        <path d="M20.419 32.7587C19.5999 32.7587 18.8666 32.568 18.219 32.1865C17.5714 31.805 17.0666 31.2805 16.7047 30.6129C16.3428 29.9263 16.1618 29.1633 16.1618 28.3241C16.1618 27.5039 16.3428 26.7696 16.7047 26.1211C17.0666 25.4726 17.5714 24.9672 18.219 24.6048C18.8666 24.2233 19.5999 24.0326 20.419 24.0326C20.9523 24.0326 21.4285 24.1279 21.8475 24.3187C22.2666 24.4903 22.6285 24.7192 22.9333 25.0053C22.9714 24.7383 23.0856 24.538 23.2761 24.4045C23.4666 24.2519 23.6761 24.1756 23.9047 24.1756C24.1523 24.1756 24.3714 24.2615 24.5618 24.4331C24.7714 24.5857 24.8761 24.8241 24.8761 25.1484V31.8718C24.8761 32.1579 24.7714 32.3772 24.5618 32.5298C24.3714 32.6824 24.1523 32.7587 23.9047 32.7587C23.6571 32.7587 23.4285 32.6824 23.219 32.5298C23.0285 32.3772 22.9333 32.1579 22.9333 31.8718V31.7573C22.6285 32.0625 22.2666 32.3009 21.8475 32.4726C21.4285 32.6633 20.9523 32.7587 20.419 32.7587ZM20.5904 30.9849C21.3142 30.9849 21.8856 30.7464 22.3047 30.2696C22.7237 29.7737 22.9333 29.1252 22.9333 28.3241C22.9333 27.5612 22.7237 26.9508 22.3047 26.493C21.8856 26.0353 21.3142 25.8064 20.5904 25.8064C19.8475 25.8064 19.2475 26.0353 18.7904 26.493C18.3333 26.9508 18.1047 27.5612 18.1047 28.3241C18.1047 29.1252 18.3333 29.7737 18.7904 30.2696C19.2475 30.7464 19.8475 30.9849 20.5904 30.9849Z" fill="#3949AB"/>
        <path d="M34.2004 32.7587C33.9528 32.7587 33.7243 32.6824 33.5147 32.5298C33.3243 32.3772 33.229 32.1579 33.229 31.8718V28.2669C33.229 27.4277 33.0385 26.8078 32.6576 26.4072C32.2957 26.0067 31.81 25.8064 31.2004 25.8064C30.4195 25.8064 29.8481 26.0639 29.4862 26.5789C29.1433 27.0748 28.9719 27.6279 28.9719 28.2383V31.8718C28.9719 32.1579 28.8671 32.3772 28.6576 32.5298C28.4671 32.6824 28.2481 32.7587 28.0004 32.7587C27.7528 32.7587 27.5243 32.6824 27.3147 32.5298C27.1243 32.3772 27.029 32.1579 27.029 31.8718V25.1484C27.029 24.8241 27.1243 24.5857 27.3147 24.4331C27.5243 24.2615 27.7528 24.1756 28.0004 24.1756C28.2481 24.1756 28.4671 24.2615 28.6576 24.4331C28.8671 24.5857 28.9719 24.8241 28.9719 25.1484C29.2957 24.8241 29.7147 24.5571 30.229 24.3473C30.7433 24.1375 31.229 24.0326 31.6862 24.0326C32.7528 24.0326 33.6004 24.3759 34.229 25.0625C34.8576 25.7492 35.1719 26.7601 35.1719 28.0952V31.8718C35.1719 32.1579 35.0671 32.3772 34.8576 32.5298C34.6481 32.6824 34.429 32.7587 34.2004 32.7587Z" fill="#3949AB"/>
        <path d="M40.2962 32.7587C39.7438 32.7587 39.1819 32.6824 38.6105 32.5298C38.0391 32.3963 37.5343 32.1769 37.0962 31.8718C36.8676 31.662 36.7533 31.4331 36.7533 31.1851C36.7533 30.9372 36.8486 30.7178 37.0391 30.5271C37.2486 30.3364 37.4772 30.241 37.7248 30.241C37.8581 30.241 37.9914 30.2791 38.1248 30.3554C38.4676 30.5652 38.8581 30.7369 39.2962 30.8704C39.7533 30.9849 40.1819 31.0421 40.5819 31.0421C40.9629 31.0421 41.2867 30.9753 41.5534 30.8418C41.8391 30.7083 41.9819 30.4889 41.9819 30.1838C41.9819 29.8786 41.8486 29.6497 41.5819 29.4971C41.3153 29.3445 40.8581 29.2301 40.2105 29.1538C39.9438 29.1157 39.62 29.068 39.2391 29.0107C38.8772 28.9535 38.5153 28.8486 38.1533 28.696C37.7914 28.5434 37.4867 28.3146 37.2391 28.0094C36.9914 27.7042 36.8676 27.2941 36.8676 26.7792C36.8676 25.9399 37.1724 25.2723 37.7819 24.7764C38.4105 24.2805 39.2486 24.0326 40.2962 24.0326C40.9057 24.0326 41.4772 24.1089 42.0105 24.2615C42.5629 24.414 42.9724 24.6048 43.2391 24.8337C43.4486 25.0053 43.5534 25.2056 43.5534 25.4345C43.5534 25.6824 43.4676 25.9018 43.2962 26.0925C43.1248 26.2832 42.9153 26.3786 42.6676 26.3786C42.5343 26.3786 42.4105 26.35 42.2962 26.2928C41.9914 26.1211 41.6486 25.9971 41.2676 25.9208C40.9057 25.8255 40.5534 25.7778 40.2105 25.7778C39.8105 25.7778 39.4676 25.8446 39.1819 25.9781C38.9153 26.0925 38.7819 26.2832 38.7819 26.5503C38.7819 26.741 38.8581 26.9127 39.0105 27.0653C39.1819 27.1988 39.6105 27.3132 40.2962 27.4086C40.62 27.4467 40.9819 27.5039 41.3819 27.5802C41.801 27.6565 42.201 27.7805 42.5819 27.9522C42.9629 28.1048 43.2772 28.3527 43.5248 28.696C43.7724 29.0394 43.8962 29.5067 43.8962 30.0979C43.8962 30.7083 43.7248 31.2137 43.3819 31.6143C43.0391 31.9957 42.5914 32.2818 42.0391 32.4726C41.5057 32.6633 40.9248 32.7587 40.2962 32.7587Z" fill="#3949AB"/>
        <path d="M47.383 32.7587C47.0973 32.7587 46.8688 32.6729 46.6973 32.5012C46.5259 32.3295 46.4402 32.1102 46.4402 31.8432V26.3786C46.4402 26.1879 46.3449 26.0925 46.1545 26.0925H45.4973C45.2497 26.0925 45.0402 26.0162 44.8688 25.8636C44.6973 25.692 44.6116 25.4822 44.6116 25.2342C44.6116 24.9672 44.6973 24.7478 44.8688 24.5762C45.0402 24.4045 45.2497 24.3187 45.4973 24.3187H46.1545C46.3449 24.3187 46.4402 24.2233 46.4402 24.0326V23.2887C46.4402 22.335 46.6878 21.5816 47.183 21.0285C47.6973 20.4563 48.4211 20.1702 49.3545 20.1702C49.564 20.1702 49.7735 20.1988 49.983 20.256C50.2116 20.2942 50.383 20.3323 50.4973 20.3705C50.8592 20.504 51.0402 20.771 51.0402 21.1716C51.0402 21.4767 50.9449 21.7151 50.7545 21.8868C50.583 22.0394 50.3735 22.1157 50.1259 22.1157C49.9926 22.1157 49.8688 22.0966 49.7545 22.0585C49.6402 22.0203 49.4783 22.0012 49.2688 22.0012C48.9449 22.0012 48.7164 22.1157 48.583 22.3446C48.4497 22.5735 48.383 22.9072 48.383 23.3459V24.0326C48.383 24.2233 48.4783 24.3187 48.6688 24.3187H49.8973C50.1259 24.3187 50.3259 24.4045 50.4973 24.5762C50.6688 24.7478 50.7545 24.9672 50.7545 25.2342C50.7545 25.4822 50.6688 25.692 50.4973 25.8636C50.3449 26.0162 50.1354 26.0925 49.8688 26.0925H48.6688C48.4783 26.0925 48.383 26.1879 48.383 26.3786V31.8432C48.383 32.1102 48.2878 32.3295 48.0973 32.5012C47.9068 32.6729 47.6688 32.7587 47.383 32.7587Z" fill="#3949AB"/>
        <path d="M56.1931 32.7587C55.355 32.7587 54.5931 32.568 53.9074 32.1865C53.2407 31.805 52.7169 31.2805 52.3359 30.6129C51.955 29.9263 51.7645 29.1633 51.7645 28.3241C51.7645 27.5039 51.955 26.7696 52.3359 26.1211C52.7169 25.4726 53.2407 24.9672 53.9074 24.6048C54.5931 24.2233 55.355 24.0326 56.1931 24.0326C57.0312 24.0326 57.7836 24.2233 58.4502 24.6048C59.1169 24.9672 59.6407 25.4726 60.0217 26.1211C60.4217 26.7696 60.6217 27.5039 60.6217 28.3241C60.6217 29.1633 60.4217 29.9263 60.0217 30.6129C59.6407 31.2805 59.1169 31.805 58.4502 32.1865C57.7836 32.568 57.0312 32.7587 56.1931 32.7587ZM56.1931 30.9849C56.9359 30.9849 57.5359 30.7464 57.9931 30.2696C58.4502 29.7737 58.6788 29.1252 58.6788 28.3241C58.6788 27.5612 58.4502 26.9508 57.9931 26.493C57.5359 26.0353 56.9359 25.8064 56.1931 25.8064C55.4312 25.8064 54.8217 26.0353 54.3645 26.493C53.9264 26.9508 53.7074 27.5612 53.7074 28.3241C53.7074 29.1252 53.9264 29.7737 54.3645 30.2696C54.8217 30.7464 55.4312 30.9849 56.1931 30.9849Z" fill="#3949AB"/>
        <path d="M64.2676 28.2383V31.8718C64.2676 32.1579 64.1629 32.3772 63.9534 32.5298C63.7629 32.6824 63.5438 32.7587 63.2962 32.7587C63.0486 32.7587 62.82 32.6824 62.6105 32.5298C62.42 32.3772 62.3248 32.1579 62.3248 31.8718V25.1484C62.3248 24.8241 62.42 24.5857 62.6105 24.4331C62.82 24.2615 63.0486 24.1756 63.2962 24.1756C63.5438 24.1756 63.7629 24.2615 63.9534 24.4331C64.1629 24.5857 64.2676 24.8241 64.2676 25.1484V25.2628C64.5343 24.9004 64.8772 24.6048 65.2962 24.3759C65.7343 24.147 66.1914 24.0326 66.6676 24.0326C66.8962 24.0326 67.1248 24.0612 67.3534 24.1184C67.5819 24.1756 67.7533 24.2901 67.8676 24.4617C67.9819 24.6334 68.0391 24.8241 68.0391 25.0339C68.0391 25.2819 67.9534 25.5108 67.7819 25.7206C67.6295 25.9113 67.401 26.0067 67.0962 26.0067C66.9629 26.0067 66.82 25.9876 66.6676 25.9495C66.5343 25.9113 66.3629 25.8922 66.1534 25.8922C65.601 25.8922 65.1438 26.102 64.7819 26.5217C64.4391 26.9413 64.2676 27.5135 64.2676 28.2383Z" fill="#3949AB"/>
        <path d="M70.2996 32.7587C70.0519 32.7587 69.8234 32.6824 69.6138 32.5298C69.4234 32.3772 69.3281 32.1579 69.3281 31.8718V25.1484C69.3281 24.8241 69.4234 24.5857 69.6138 24.4331C69.8234 24.2615 70.0519 24.1756 70.2996 24.1756C70.49 24.1756 70.671 24.2233 70.8424 24.3187C71.0138 24.395 71.1377 24.538 71.2138 24.7478C71.2519 24.8623 71.271 24.9672 71.271 25.0625C71.5567 24.7574 71.9281 24.5094 72.3853 24.3187C72.8424 24.1279 73.29 24.0326 73.7281 24.0326C74.9662 24.0326 75.8805 24.5285 76.471 25.5203C76.6996 25.1198 77.071 24.7764 77.5853 24.4903C78.1186 24.1852 78.7662 24.0326 79.5281 24.0326C80.5567 24.0326 81.3757 24.3759 81.9853 25.0625C82.5948 25.7492 82.8996 26.7601 82.8996 28.0952V31.8718C82.8996 32.1579 82.7948 32.3772 82.5853 32.5298C82.3757 32.6824 82.1567 32.7587 81.9281 32.7587C81.6805 32.7587 81.4519 32.6824 81.2424 32.5298C81.0519 32.3772 80.9567 32.1579 80.9567 31.8718V28.2669C80.9567 26.6266 80.3472 25.8064 79.1281 25.8064C78.4424 25.8064 77.9472 25.9876 77.6424 26.35C77.3377 26.7124 77.1472 27.1415 77.071 27.6375V31.8718C77.071 32.1579 76.9662 32.3772 76.7567 32.5298C76.5472 32.6824 76.3281 32.7587 76.0996 32.7587C75.8519 32.7587 75.6234 32.6824 75.4138 32.5298C75.2234 32.3772 75.1281 32.1579 75.1281 31.8718V28.2669C75.1281 27.4277 74.9662 26.8078 74.6424 26.4072C74.3186 26.0067 73.8805 25.8064 73.3281 25.8064C72.5091 25.8064 71.9567 26.0639 71.671 26.5789C71.4043 27.0748 71.271 27.6279 71.271 28.2383V31.8718C71.271 32.1579 71.1662 32.3772 70.9567 32.5298C70.7662 32.6824 70.5472 32.7587 70.2996 32.7587Z" fill="#3949AB"/>
        <path d="M88.7225 32.7587C87.9035 32.7587 87.1702 32.568 86.5226 32.1865C85.8749 31.805 85.3702 31.2805 85.0083 30.6129C84.6464 29.9263 84.4654 29.1633 84.4654 28.3241C84.4654 27.5039 84.6464 26.7696 85.0083 26.1211C85.3702 25.4726 85.8749 24.9672 86.5226 24.6048C87.1702 24.2233 87.9035 24.0326 88.7225 24.0326C89.2559 24.0326 89.7321 24.1279 90.1511 24.3187C90.5702 24.4903 90.9321 24.7192 91.2368 25.0053C91.2749 24.7383 91.3892 24.538 91.5797 24.4045C91.7702 24.2519 91.9797 24.1756 92.2083 24.1756C92.4559 24.1756 92.6749 24.2615 92.8654 24.4331C93.0749 24.5857 93.1797 24.8241 93.1797 25.1484V31.8718C93.1797 32.1579 93.0749 32.3772 92.8654 32.5298C92.6749 32.6824 92.4559 32.7587 92.2083 32.7587C91.9606 32.7587 91.7321 32.6824 91.5226 32.5298C91.3321 32.3772 91.2368 32.1579 91.2368 31.8718V31.7573C90.9321 32.0625 90.5702 32.3009 90.1511 32.4726C89.7321 32.6633 89.2559 32.7587 88.7225 32.7587ZM88.894 30.9849C89.6178 30.9849 90.1892 30.7464 90.6083 30.2696C91.0273 29.7737 91.2368 29.1252 91.2368 28.3241C91.2368 27.5612 91.0273 26.9508 90.6083 26.493C90.1892 26.0353 89.6178 25.8064 88.894 25.8064C88.1511 25.8064 87.5511 26.0353 87.094 26.493C86.6368 26.9508 86.4083 27.5612 86.4083 28.3241C86.4083 29.1252 86.6368 29.7737 87.094 30.2696C87.5511 30.7464 88.1511 30.9849 88.894 30.9849Z" fill="#3949AB"/>
        <path d="M98.5612 32.7587C97.8183 32.7587 97.2088 32.5298 96.7326 32.072C96.2564 31.6143 96.0183 30.9276 96.0183 30.0121V26.3786C96.0183 26.1879 95.9231 26.0925 95.7326 26.0925H95.2183C94.9707 26.0925 94.7612 26.0162 94.5897 25.8636C94.4183 25.692 94.3326 25.4822 94.3326 25.2342C94.3326 24.9672 94.4183 24.7478 94.5897 24.5762C94.7612 24.4045 94.9707 24.3187 95.2183 24.3187H95.7326C95.9231 24.3187 96.0183 24.2233 96.0183 24.0326V21.6293C96.0183 21.3623 96.104 21.1525 96.2754 20.9999C96.4659 20.8282 96.6945 20.7424 96.9612 20.7424C97.2469 20.7424 97.4755 20.8282 97.6469 20.9999C97.8374 21.1525 97.9326 21.3623 97.9326 21.6293V24.0326C97.9326 24.2233 98.0278 24.3187 98.2183 24.3187H99.7612C99.9897 24.3187 100.19 24.4045 100.361 24.5762C100.533 24.7478 100.618 24.9672 100.618 25.2342C100.618 25.4822 100.533 25.692 100.361 25.8636C100.209 26.0162 99.9993 26.0925 99.7326 26.0925H98.2183C98.0278 26.0925 97.9326 26.1879 97.9326 26.3786V29.7546C97.9326 30.5557 98.2564 30.9562 98.904 30.9562C99.0945 30.9562 99.2945 30.9276 99.504 30.8704C99.7135 30.8132 99.8564 30.7846 99.9326 30.7846C100.199 30.7846 100.399 30.8704 100.533 31.0421C100.685 31.2137 100.761 31.414 100.761 31.6429C100.761 31.8145 100.714 31.9862 100.618 32.1579C100.523 32.3105 100.371 32.4249 100.161 32.5012C99.9516 32.5775 99.685 32.6347 99.3612 32.6729C99.0564 32.7301 98.7897 32.7587 98.5612 32.7587Z" fill="#3949AB"/>
        <path d="M103.196 32.7587C102.949 32.7587 102.72 32.6824 102.511 32.5298C102.32 32.3772 102.225 32.1579 102.225 31.8718V25.0053C102.225 24.6811 102.32 24.4427 102.511 24.2901C102.72 24.1184 102.949 24.0326 103.196 24.0326C103.444 24.0326 103.663 24.1184 103.854 24.2901C104.063 24.4427 104.168 24.6811 104.168 25.0053V31.8718C104.168 32.1579 104.063 32.3772 103.854 32.5298C103.663 32.6824 103.444 32.7587 103.196 32.7587ZM103.225 22.459C102.863 22.459 102.549 22.3446 102.282 22.1157C102.035 21.8677 101.911 21.5721 101.911 21.2288C101.911 20.9045 102.035 20.628 102.282 20.3991C102.549 20.1511 102.863 20.0271 103.225 20.0271C103.568 20.0271 103.863 20.1511 104.111 20.3991C104.358 20.628 104.482 20.9045 104.482 21.2288C104.482 21.5721 104.358 21.8677 104.111 22.1157C103.863 22.3446 103.568 22.459 103.225 22.459Z" fill="#3949AB"/>
        <path d="M110.35 32.7587C109.512 32.7587 108.75 32.568 108.065 32.1865C107.398 31.805 106.874 31.2805 106.493 30.6129C106.112 29.9263 105.922 29.1633 105.922 28.3241C105.922 27.5039 106.112 26.7696 106.493 26.1211C106.874 25.4726 107.398 24.9672 108.065 24.6048C108.75 24.2233 109.512 24.0326 110.35 24.0326C111.189 24.0326 111.941 24.2233 112.608 24.6048C113.274 24.9672 113.798 25.4726 114.179 26.1211C114.579 26.7696 114.779 27.5039 114.779 28.3241C114.779 29.1633 114.579 29.9263 114.179 30.6129C113.798 31.2805 113.274 31.805 112.608 32.1865C111.941 32.568 111.189 32.7587 110.35 32.7587ZM110.35 30.9849C111.093 30.9849 111.693 30.7464 112.15 30.2696C112.608 29.7737 112.836 29.1252 112.836 28.3241C112.836 27.5612 112.608 26.9508 112.15 26.493C111.693 26.0353 111.093 25.8064 110.35 25.8064C109.589 25.8064 108.979 26.0353 108.522 26.493C108.084 26.9508 107.865 27.5612 107.865 28.3241C107.865 29.1252 108.084 29.7737 108.522 30.2696C108.979 30.7464 109.589 30.9849 110.35 30.9849Z" fill="#3949AB"/>
        <path d="M123.654 32.7587C123.406 32.7587 123.177 32.6824 122.968 32.5298C122.777 32.3772 122.682 32.1579 122.682 31.8718V28.2669C122.682 27.4277 122.492 26.8078 122.111 26.4072C121.749 26.0067 121.263 25.8064 120.654 25.8064C119.873 25.8064 119.301 26.0639 118.939 26.5789C118.596 27.0748 118.425 27.6279 118.425 28.2383V31.8718C118.425 32.1579 118.32 32.3772 118.111 32.5298C117.92 32.6824 117.701 32.7587 117.454 32.7587C117.206 32.7587 116.977 32.6824 116.768 32.5298C116.577 32.3772 116.482 32.1579 116.482 31.8718V25.1484C116.482 24.8241 116.577 24.5857 116.768 24.4331C116.977 24.2615 117.206 24.1756 117.454 24.1756C117.701 24.1756 117.92 24.2615 118.111 24.4331C118.32 24.5857 118.425 24.8241 118.425 25.1484C118.749 24.8241 119.168 24.5571 119.682 24.3473C120.196 24.1375 120.682 24.0326 121.139 24.0326C122.206 24.0326 123.054 24.3759 123.682 25.0625C124.311 25.7492 124.625 26.7601 124.625 28.0952V31.8718C124.625 32.1579 124.52 32.3772 124.311 32.5298C124.101 32.6824 123.882 32.7587 123.654 32.7587Z" fill="#3949AB"/>
        <path d="M2.57143 52.4997C2.09524 52.4997 1.71429 52.3567 1.42857 52.0706C1.14286 51.7845 1 51.403 1 50.9262V41.8567C1 41.5325 1.10476 41.2941 1.31429 41.1415C1.54286 40.9889 1.78095 40.9126 2.02857 40.9126C2.27619 40.9126 2.49524 40.9889 2.68571 41.1415C2.89524 41.2941 3 41.5325 3 41.8567V49.982C3 50.2681 3.05714 50.4684 3.17143 50.5828C3.28571 50.6782 3.47619 50.7259 3.74286 50.7259H6.68572C6.99048 50.7259 7.20953 50.8213 7.34286 51.012C7.49524 51.2027 7.57143 51.403 7.57143 51.6128C7.57143 51.8417 7.49524 52.0515 7.34286 52.2422C7.20953 52.4139 6.99048 52.4997 6.68572 52.4997H2.57143Z" fill="#3949AB"/>
        <path d="M12.9759 52.7858C11.5473 52.7858 10.433 52.3757 9.63304 51.5556C8.83304 50.7354 8.43304 49.6292 8.43304 48.2368C8.43304 47.0161 8.83304 46.0147 9.63304 45.2327C10.4521 44.4507 11.4997 44.0597 12.7759 44.0597C14.014 44.0597 15.0045 44.4221 15.7473 45.1469C16.4902 45.8526 16.8616 46.73 16.8616 47.779C16.8616 48.1987 16.7473 48.5134 16.5188 48.7232C16.3092 48.933 16.033 49.0379 15.6902 49.0379H10.7188C10.5283 49.0379 10.4616 49.1428 10.5188 49.3526C10.6711 49.8867 10.9759 50.3063 11.433 50.6115C11.9092 50.8976 12.4426 51.0406 13.033 51.0406C13.4711 51.0406 13.8902 50.9834 14.2902 50.8689C14.7092 50.7545 15.0711 50.5828 15.3759 50.354C15.4711 50.2777 15.5949 50.2395 15.7473 50.2395C15.9568 50.2395 16.1473 50.3349 16.3188 50.5256C16.4902 50.6973 16.5759 50.9071 16.5759 51.155C16.5759 51.2695 16.5568 51.3839 16.5188 51.4984C16.4807 51.6128 16.3949 51.7272 16.2616 51.8417C15.7664 52.2041 15.233 52.452 14.6616 52.5856C14.1092 52.7191 13.5473 52.7858 12.9759 52.7858ZM14.633 47.5502C14.7473 47.5502 14.8045 47.4929 14.8045 47.3785C14.8045 46.9398 14.6045 46.5583 14.2045 46.2341C13.8235 45.9098 13.3473 45.7477 12.7759 45.7477C12.2807 45.7477 11.8045 45.8812 11.3473 46.1483C10.9092 46.4153 10.6426 46.7682 10.5473 47.2068C10.5473 47.2068 10.5473 47.2164 10.5473 47.2355C10.5283 47.3117 10.5188 47.3785 10.5188 47.4357C10.5378 47.4929 10.6235 47.5216 10.7759 47.5216L14.633 47.5502Z" fill="#3949AB"/>
        <path d="M22.5395 52.7858C21.7205 52.7858 20.9871 52.5951 20.3395 52.2136C19.6919 51.8322 19.1871 51.3076 18.8252 50.6401C18.4633 49.9534 18.2824 49.1905 18.2824 48.3512C18.2824 47.5311 18.4633 46.7968 18.8252 46.1483C19.1871 45.4998 19.6919 44.9943 20.3395 44.6319C20.9871 44.2505 21.7205 44.0597 22.5395 44.0597C23.0728 44.0597 23.549 44.1551 23.9681 44.3458C24.3871 44.5175 24.749 44.7464 25.0538 45.0325C25.0919 44.7654 25.2062 44.5652 25.3967 44.4317C25.5871 44.2791 25.7967 44.2028 26.0252 44.2028C26.2728 44.2028 26.4919 44.2886 26.6824 44.4603C26.8919 44.6128 26.9967 44.8513 26.9967 45.1755V51.8989C26.9967 52.185 26.8919 52.4044 26.6824 52.5569C26.4919 52.7095 26.2728 52.7858 26.0252 52.7858C25.7776 52.7858 25.549 52.7095 25.3395 52.5569C25.149 52.4044 25.0538 52.185 25.0538 51.8989V51.7845C24.749 52.0896 24.3871 52.3281 23.9681 52.4997C23.549 52.6905 23.0728 52.7858 22.5395 52.7858ZM22.7109 51.012C23.4347 51.012 24.0062 50.7736 24.4252 50.2967C24.8443 49.8008 25.0538 49.1523 25.0538 48.3512C25.0538 47.5883 24.8443 46.978 24.4252 46.5202C24.0062 46.0624 23.4347 45.8335 22.7109 45.8335C21.9681 45.8335 21.3681 46.0624 20.9109 46.5202C20.4538 46.978 20.2252 47.5883 20.2252 48.3512C20.2252 49.1523 20.4538 49.8008 20.9109 50.2967C21.3681 50.7736 21.9681 51.012 22.7109 51.012Z" fill="#3949AB"/>
        <path d="M32.8353 52.7858C32.0162 52.7858 31.2829 52.5951 30.6353 52.2136C29.9876 51.8322 29.4829 51.3076 29.121 50.6401C28.7591 49.9534 28.5781 49.1905 28.5781 48.3512C28.5781 47.5311 28.7591 46.7968 29.121 46.1483C29.4829 45.4998 29.9876 44.9943 30.6353 44.6319C31.2829 44.2505 32.0162 44.0597 32.8353 44.0597C33.3686 44.0597 33.8448 44.1455 34.2638 44.3172C34.6829 44.4889 35.0448 44.7273 35.3496 45.0325V41.027C35.3496 40.7028 35.4448 40.4644 35.6353 40.3118C35.8448 40.1401 36.0734 40.0543 36.321 40.0543C36.5686 40.0543 36.7876 40.1401 36.9781 40.3118C37.1876 40.4644 37.2924 40.7028 37.2924 41.027V51.8989C37.2924 52.185 37.1876 52.4044 36.9781 52.5569C36.7876 52.7095 36.5686 52.7858 36.321 52.7858C36.0734 52.7858 35.8448 52.7095 35.6353 52.5569C35.4448 52.4044 35.3496 52.185 35.3496 51.8989V51.7845C35.0448 52.0896 34.6829 52.3281 34.2638 52.4997C33.8448 52.6905 33.3686 52.7858 32.8353 52.7858ZM33.0067 51.012C33.7305 51.012 34.3019 50.7736 34.721 50.2967C35.14 49.8008 35.3496 49.1523 35.3496 48.3512C35.3496 47.5883 35.14 46.978 34.721 46.5202C34.3019 46.0624 33.7305 45.8335 33.0067 45.8335C32.2638 45.8335 31.6638 46.0624 31.2067 46.5202C30.7496 46.978 30.521 47.5883 30.521 48.3512C30.521 49.1523 30.7496 49.8008 31.2067 50.2967C31.6638 50.7736 32.2638 51.012 33.0067 51.012Z" fill="#3949AB"/>
        <path d="M43.4167 52.7858C41.9882 52.7858 40.8739 52.3757 40.0739 51.5556C39.2739 50.7354 38.8739 49.6292 38.8739 48.2368C38.8739 47.0161 39.2739 46.0147 40.0739 45.2327C40.8929 44.4507 41.9406 44.0597 43.2167 44.0597C44.4548 44.0597 45.4453 44.4221 46.1882 45.1469C46.931 45.8526 47.3025 46.73 47.3025 47.779C47.3025 48.1987 47.1882 48.5134 46.9596 48.7232C46.7501 48.933 46.4739 49.0379 46.131 49.0379H41.1596C40.9691 49.0379 40.9025 49.1428 40.9596 49.3526C41.112 49.8867 41.4167 50.3063 41.8739 50.6115C42.3501 50.8976 42.8834 51.0406 43.4739 51.0406C43.912 51.0406 44.331 50.9834 44.731 50.8689C45.1501 50.7545 45.512 50.5828 45.8167 50.354C45.912 50.2777 46.0358 50.2395 46.1882 50.2395C46.3977 50.2395 46.5882 50.3349 46.7596 50.5256C46.931 50.6973 47.0167 50.9071 47.0167 51.155C47.0167 51.2695 46.9977 51.3839 46.9596 51.4984C46.9215 51.6128 46.8358 51.7272 46.7025 51.8417C46.2072 52.2041 45.6739 52.452 45.1025 52.5856C44.5501 52.7191 43.9882 52.7858 43.4167 52.7858ZM45.0739 47.5502C45.1882 47.5502 45.2453 47.4929 45.2453 47.3785C45.2453 46.9398 45.0453 46.5583 44.6453 46.2341C44.2644 45.9098 43.7882 45.7477 43.2167 45.7477C42.7215 45.7477 42.2453 45.8812 41.7882 46.1483C41.3501 46.4153 41.0834 46.7682 40.9882 47.2068C40.9882 47.2068 40.9882 47.2164 40.9882 47.2355C40.9691 47.3117 40.9596 47.3785 40.9596 47.4357C40.9786 47.4929 41.0644 47.5216 41.2167 47.5216L45.0739 47.5502Z" fill="#3949AB"/>
        <path d="M50.9585 48.2654V51.8989C50.9585 52.185 50.8537 52.4044 50.6442 52.5569C50.4537 52.7095 50.2347 52.7858 49.9871 52.7858C49.7394 52.7858 49.5109 52.7095 49.3013 52.5569C49.1109 52.4044 49.0156 52.185 49.0156 51.8989V45.1755C49.0156 44.8513 49.1109 44.6128 49.3013 44.4603C49.5109 44.2886 49.7394 44.2028 49.9871 44.2028C50.2347 44.2028 50.4537 44.2886 50.6442 44.4603C50.8537 44.6128 50.9585 44.8513 50.9585 45.1755V45.29C51.2252 44.9276 51.568 44.6319 51.9871 44.403C52.4251 44.1742 52.8823 44.0597 53.3585 44.0597C53.5871 44.0597 53.8156 44.0883 54.0442 44.1455C54.2728 44.2028 54.4442 44.3172 54.5585 44.4889C54.6728 44.6605 54.7299 44.8513 54.7299 45.0611C54.7299 45.309 54.6442 45.5379 54.4728 45.7477C54.3204 45.9385 54.0918 46.0338 53.7871 46.0338C53.6537 46.0338 53.5109 46.0147 53.3585 45.9766C53.2252 45.9385 53.0537 45.9194 52.8442 45.9194C52.2918 45.9194 51.8347 46.1292 51.4728 46.5488C51.1299 46.9684 50.9585 47.5406 50.9585 48.2654Z" fill="#3949AB"/>
        <path d="M58.9904 52.7858C58.438 52.7858 57.8761 52.7095 57.3047 52.5569C56.7333 52.4234 56.2285 52.2041 55.7904 51.8989C55.5618 51.6891 55.4475 51.4602 55.4475 51.2123C55.4475 50.9643 55.5428 50.745 55.7333 50.5542C55.9428 50.3635 56.1714 50.2681 56.419 50.2681C56.5523 50.2681 56.6856 50.3063 56.819 50.3826C57.1618 50.5924 57.5523 50.764 57.9904 50.8976C58.4475 51.012 58.8761 51.0692 59.2761 51.0692C59.6571 51.0692 59.9809 51.0025 60.2475 50.8689C60.5333 50.7354 60.6761 50.5161 60.6761 50.2109C60.6761 49.9057 60.5428 49.6769 60.2761 49.5243C60.0094 49.3717 59.5523 49.2572 58.9047 49.1809C58.638 49.1428 58.3142 49.0951 57.9333 49.0379C57.5714 48.9807 57.2094 48.8758 56.8475 48.7232C56.4856 48.5706 56.1809 48.3417 55.9333 48.0365C55.6856 47.7314 55.5618 47.3213 55.5618 46.8063C55.5618 45.9671 55.8666 45.2995 56.4761 44.8036C57.1047 44.3077 57.9428 44.0597 58.9904 44.0597C59.5999 44.0597 60.1714 44.136 60.7047 44.2886C61.2571 44.4412 61.6666 44.6319 61.9333 44.8608C62.1428 45.0325 62.2475 45.2327 62.2475 45.4616C62.2475 45.7096 62.1618 45.9289 61.9904 46.1197C61.819 46.3104 61.6095 46.4058 61.3618 46.4058C61.2285 46.4058 61.1047 46.3771 60.9904 46.3199C60.6856 46.1483 60.3428 46.0243 59.9618 45.948C59.5999 45.8526 59.2476 45.8049 58.9047 45.8049C58.5047 45.8049 58.1618 45.8717 57.8761 46.0052C57.6095 46.1197 57.4761 46.3104 57.4761 46.5774C57.4761 46.7682 57.5523 46.9398 57.7047 47.0924C57.8761 47.2259 58.3047 47.3404 58.9904 47.4357C59.3142 47.4739 59.6761 47.5311 60.0761 47.6074C60.4952 47.6837 60.8952 47.8077 61.2761 47.9793C61.6571 48.1319 61.9714 48.3799 62.219 48.7232C62.4666 49.0665 62.5904 49.5338 62.5904 50.1251C62.5904 50.7354 62.419 51.2409 62.0761 51.6414C61.7333 52.0229 61.2856 52.309 60.7333 52.4997C60.1999 52.6905 59.619 52.7858 58.9904 52.7858Z" fill="#3949AB"/>
        <rect y="57.5065" width="62.8571" height="20.8854" fill="#F57C00"/>
        <rect x="68.5714" y="37.4794" width="62.8571" height="40.9126" fill="#FF9800"/>
        <rect x="137.143" width="62.8571" height="78.392" fill="#FFB74D"/>
        <rect y="77.2476" width="200" height="1.14441" fill="#3949AB"/>
    </g>
    <defs>
        <clipPath id="clip0_6_218">
            <rect width="200" height="78.392" fill="white"/>
        </clipPath>
    </defs>
</svg>
